<svg width="30" height="30" viewBox="0 0 30 30" fill="none" xmlns="http://www.w3.org/2000/svg">
<path opacity="0.6" d="M15 19.5039C19.1421 19.5039 22.5 16.146 22.5 12.0039C22.5 7.86177 19.1421 4.50391 15 4.50391C10.8579 4.50391 7.5 7.86177 7.5 12.0039C7.5 16.146 10.8579 19.5039 15 19.5039Z" fill="#FF2D2D"/>
<path opacity="0.4" d="M15 28.5117C19.5563 28.5117 23.25 25.8254 23.25 22.5117C23.25 19.198 19.5563 16.5117 15 16.5117C10.4437 16.5117 6.75 19.198 6.75 22.5117C6.75 25.8254 10.4437 28.5117 15 28.5117Z" fill="#FF2D2D"/>
<path d="M10.5 6.75781L8.25 2.25781L12.75 5.25781L10.5 6.75781Z" fill="#FF2D2D"/>
<path d="M19.5 6.75781L21.75 2.25781L17.25 5.25781L19.5 6.75781Z" fill="#FF2D2D"/>
</svg>
